<?xml version="1.0" encoding="UTF-8" standalone="no"?><!DOCTYPE svg PUBLIC "-//W3C//DTD SVG 1.1//EN" "http://www.w3.org/Graphics/SVG/1.1/DTD/svg11.dtd"><!-- Generated by graphviz version 2.40.1 (20161225.0304)
 --><!-- Title: S Pages: 1 --><svg xmlns="http://www.w3.org/2000/svg" xmlns:xlink="http://www.w3.org/1999/xlink" width="351pt" height="2316pt" viewBox="0.00 0.00 350.69 2315.60">
<g id="graph0" class="graph" transform="scale(1 1) rotate(0) translate(4 2311.6)">
<title>S</title>
<polygon fill="#ffffff" stroke="transparent" points="-4,4 -4,-2311.6 346.6894,-2311.6 346.6894,4 -4,4"/>
<!-- start -->
<g id="node1" class="node">
<title>start</title>
<text text-anchor="middle" x="239.195" y="-2285.4" font-family="Times,serif" font-size="14.00" fill="#000000">S</text>
</g>
<!-- alg -->
<g id="node2" class="node">
<title>alg</title>
<polygon fill="none" stroke="#000000" points="239.195,-2235.6 185.195,-2235.6 185.195,-2199.6 239.195,-2199.6 239.195,-2235.6"/>
<text text-anchor="middle" x="212.195" y="-2213.4" font-family="Times,serif" font-size="14.00" fill="#000000">ALG</text>
</g>
<!-- start&#45;&gt;alg -->
<g id="edge1" class="edge">
<title>start-&gt;alg</title>
<path fill="none" stroke="#000000" d="M232.3817,-2271.4314C229.4306,-2263.5617 225.9092,-2254.1712 222.6399,-2245.4533"/>
<polygon fill="#000000" stroke="#000000" points="225.8884,-2244.1476 219.0999,-2236.0133 219.3341,-2246.6055 225.8884,-2244.1476"/>
</g>
<!-- fragment -->
<g id="node26" class="node">
<title>fragment</title>
<polygon fill="none" stroke="#000000" points="342.6838,-2163.6 249.7062,-2163.6 249.7062,-2127.6 342.6838,-2127.6 342.6838,-2163.6"/>
<text text-anchor="middle" x="296.195" y="-2141.4" font-family="Times,serif" font-size="14.00" fill="#000000">FRAGMENT</text>
</g>
<!-- start&#45;&gt;fragment -->
<g id="edge2" class="edge">
<title>start-&gt;fragment</title>
<path fill="none" stroke="#000000" d="M246.4141,-2271.3623C256.2219,-2246.5846 273.8417,-2202.0714 285.2724,-2173.1939"/>
<polygon fill="#000000" stroke="#000000" points="288.6083,-2174.2759 289.0345,-2163.6896 282.0996,-2171.6995 288.6083,-2174.2759"/>
</g>
<!-- algorithm -->
<g id="node4" class="node">
<title>algorithm</title>
<ellipse fill="none" stroke="#000000" cx="183.195" cy="-2145.6" rx="48.6733" ry="18"/>
<text text-anchor="middle" x="183.195" y="-2141.4" font-family="Times,serif" font-size="14.00" fill="#000000">algorithm</text>
</g>
<!-- alg&#45;&gt;algorithm -->
<g id="edge4" class="edge">
<title>alg-&gt;algorithm</title>
<path fill="none" stroke="#000000" d="M204.877,-2199.4314C201.6586,-2191.4406 197.8085,-2181.8819 194.2518,-2173.0514"/>
<polygon fill="#000000" stroke="#000000" points="197.3928,-2171.4816 190.4101,-2163.5134 190.8997,-2174.0969 197.3928,-2171.4816"/>
</g>
<!-- statement -->
<g id="node3" class="node">
<title>statement</title>
<polygon fill="none" stroke="#000000" points="232.8986,-1947.6 133.4914,-1947.6 133.4914,-1911.6 232.8986,-1911.6 232.8986,-1947.6"/>
<text text-anchor="middle" x="183.195" y="-1925.4" font-family="Times,serif" font-size="14.00" fill="#000000">STATEMENT</text>
</g>
<!-- alg_comma_1 -->
<g id="node8" class="node">
<title>alg_comma_1</title>
<ellipse fill="none" stroke="#000000" cx="183.195" cy="-1857.6" rx="27" ry="18"/>
<text text-anchor="middle" x="183.195" y="-1853.4" font-family="Times,serif" font-size="14.00" fill="#000000">,</text>
</g>
<!-- statement&#45;&gt;alg_comma_1 -->
<g id="edge8" class="edge">
<title>statement-&gt;alg_comma_1</title>
<path fill="none" stroke="#000000" d="M183.195,-1911.4314C183.195,-1903.731 183.195,-1894.5743 183.195,-1886.0166"/>
<polygon fill="#000000" stroke="#000000" points="186.6951,-1886.0132 183.195,-1876.0133 179.6951,-1886.0133 186.6951,-1886.0132"/>
</g>
<!-- alg_br_open -->
<g id="node5" class="node">
<title>alg_br_open</title>
<ellipse fill="none" stroke="#000000" cx="183.195" cy="-2073.6" rx="27" ry="18"/>
<text text-anchor="middle" x="183.195" y="-2069.4" font-family="Times,serif" font-size="14.00" fill="#000000">(</text>
</g>
<!-- algorithm&#45;&gt;alg_br_open -->
<g id="edge5" class="edge">
<title>algorithm-&gt;alg_br_open</title>
<path fill="none" stroke="#000000" d="M183.195,-2127.4314C183.195,-2119.731 183.195,-2110.5743 183.195,-2102.0166"/>
<polygon fill="#000000" stroke="#000000" points="186.6951,-2102.0132 183.195,-2092.0133 179.6951,-2102.0133 186.6951,-2102.0132"/>
</g>
<!-- alg_name -->
<g id="node7" class="node">
<title>alg_name</title>
<polygon fill="none" stroke="#000000" points="229.6712,-2019.6 136.7188,-2019.6 136.7188,-1983.6 229.6712,-1983.6 229.6712,-2019.6"/>
<text text-anchor="middle" x="183.195" y="-1997.4" font-family="Times,serif" font-size="14.00" fill="#000000">ALG_NAME</text>
</g>
<!-- alg_br_open&#45;&gt;alg_name -->
<g id="edge6" class="edge">
<title>alg_br_open-&gt;alg_name</title>
<path fill="none" stroke="#000000" d="M183.195,-2055.4314C183.195,-2047.731 183.195,-2038.5743 183.195,-2030.0166"/>
<polygon fill="#000000" stroke="#000000" points="186.6951,-2030.0132 183.195,-2020.0133 179.6951,-2030.0133 186.6951,-2030.0132"/>
</g>
<!-- alg_br_close -->
<g id="node6" class="node">
<title>alg_br_close</title>
<ellipse fill="none" stroke="#000000" cx="168.195" cy="-57.6" rx="27" ry="18"/>
<text text-anchor="middle" x="168.195" y="-53.4" font-family="Times,serif" font-size="14.00" fill="#000000">)</text>
</g>
<!-- end -->
<g id="node27" class="node">
<title>end</title>
<ellipse fill="#000000" stroke="#000000" cx="168.195" cy="-1.8" rx="1.8" ry="1.8"/>
</g>
<!-- alg_br_close&#45;&gt;end -->
<g id="edge50" class="edge">
<title>alg_br_close-&gt;end</title>
<path fill="none" stroke="#000000" d="M168.195,-39.329C168.195,-31.065 168.195,-21.5164 168.195,-14.1189"/>
<polygon fill="#000000" stroke="#000000" points="171.6951,-13.8688 168.195,-3.8688 164.6951,-13.8689 171.6951,-13.8688"/>
</g>
<!-- alg_name&#45;&gt;statement -->
<g id="edge7" class="edge">
<title>alg_name-&gt;statement</title>
<path fill="none" stroke="#000000" d="M183.195,-1983.4314C183.195,-1975.731 183.195,-1966.5743 183.195,-1958.0166"/>
<polygon fill="#000000" stroke="#000000" points="186.6951,-1958.0132 183.195,-1948.0133 179.6951,-1958.0133 186.6951,-1958.0132"/>
</g>
<!-- input -->
<g id="node11" class="node">
<title>input</title>
<polygon fill="none" stroke="#000000" points="211.9044,-1803.6 154.4856,-1803.6 154.4856,-1767.6 211.9044,-1767.6 211.9044,-1803.6"/>
<text text-anchor="middle" x="183.195" y="-1781.4" font-family="Times,serif" font-size="14.00" fill="#000000">INPUT</text>
</g>
<!-- alg_comma_1&#45;&gt;input -->
<g id="edge9" class="edge">
<title>alg_comma_1-&gt;input</title>
<path fill="none" stroke="#000000" d="M183.195,-1839.4314C183.195,-1831.731 183.195,-1822.5743 183.195,-1814.0166"/>
<polygon fill="#000000" stroke="#000000" points="186.6951,-1814.0132 183.195,-1804.0133 179.6951,-1814.0133 186.6951,-1814.0132"/>
</g>
<!-- alg_comma_2 -->
<g id="node9" class="node">
<title>alg_comma_2</title>
<ellipse fill="none" stroke="#000000" cx="194.195" cy="-1425.6" rx="27" ry="18"/>
<text text-anchor="middle" x="194.195" y="-1421.4" font-family="Times,serif" font-size="14.00" fill="#000000">,</text>
</g>
<!-- code_block -->
<g id="node12" class="node">
<title>code_block</title>
<polygon fill="none" stroke="#000000" points="275.2373,-1371.6 167.1526,-1371.6 167.1526,-1335.6 275.2373,-1335.6 275.2373,-1371.6"/>
<text text-anchor="middle" x="221.195" y="-1349.4" font-family="Times,serif" font-size="14.00" fill="#000000">CODE_BLOCK</text>
</g>
<!-- alg_comma_2&#45;&gt;code_block -->
<g id="edge18" class="edge">
<title>alg_comma_2-&gt;code_block</title>
<path fill="none" stroke="#000000" d="M200.8691,-1407.8022C203.8645,-1399.8146 207.4683,-1390.2045 210.8042,-1381.3087"/>
<polygon fill="#000000" stroke="#000000" points="214.1759,-1382.2854 214.41,-1371.6931 207.6216,-1379.8275 214.1759,-1382.2854"/>
</g>
<!-- alg_comma_3 -->
<g id="node10" class="node">
<title>alg_comma_3</title>
<ellipse fill="none" stroke="#000000" cx="176.195" cy="-489.6" rx="27" ry="18"/>
<text text-anchor="middle" x="176.195" y="-485.4" font-family="Times,serif" font-size="14.00" fill="#000000">,</text>
</g>
<!-- output -->
<g id="node13" class="node">
<title>output</title>
<polygon fill="none" stroke="#000000" points="211.9029,-435.6 140.4871,-435.6 140.4871,-399.6 211.9029,-399.6 211.9029,-435.6"/>
<text text-anchor="middle" x="176.195" y="-413.4" font-family="Times,serif" font-size="14.00" fill="#000000">OUTPUT</text>
</g>
<!-- alg_comma_3&#45;&gt;output -->
<g id="edge40" class="edge">
<title>alg_comma_3-&gt;output</title>
<path fill="none" stroke="#000000" d="M176.195,-471.4314C176.195,-463.731 176.195,-454.5743 176.195,-446.0166"/>
<polygon fill="#000000" stroke="#000000" points="179.6951,-446.0132 176.195,-436.0133 172.6951,-446.0133 179.6951,-446.0132"/>
</g>
<!-- input_br_open -->
<g id="node21" class="node">
<title>input_br_open</title>
<ellipse fill="none" stroke="#000000" cx="183.195" cy="-1713.6" rx="27" ry="18"/>
<text text-anchor="middle" x="183.195" y="-1709.4" font-family="Times,serif" font-size="14.00" fill="#000000">(</text>
</g>
<!-- input&#45;&gt;input_br_open -->
<g id="edge10" class="edge">
<title>input-&gt;input_br_open</title>
<path fill="none" stroke="#000000" d="M183.195,-1767.4314C183.195,-1759.731 183.195,-1750.5743 183.195,-1742.0166"/>
<polygon fill="#000000" stroke="#000000" points="186.6951,-1742.0132 183.195,-1732.0133 179.6951,-1742.0133 186.6951,-1742.0132"/>
</g>
<!-- alg_unit -->
<g id="node28" class="node">
<title>alg_unit</title>
<polygon fill="none" stroke="#000000" points="217.8874,-1299.6 132.5025,-1299.6 132.5025,-1263.6 217.8874,-1263.6 217.8874,-1299.6"/>
<text text-anchor="middle" x="175.195" y="-1277.4" font-family="Times,serif" font-size="14.00" fill="#000000">ALG_UNIT</text>
</g>
<!-- code_block&#45;&gt;alg_unit -->
<g id="edge19" class="edge">
<title>code_block-&gt;alg_unit</title>
<path fill="none" stroke="#000000" d="M209.5872,-1335.4314C204.3972,-1327.3079 198.1718,-1317.5637 192.4525,-1308.6118"/>
<polygon fill="#000000" stroke="#000000" points="195.2924,-1306.5559 186.959,-1300.0133 189.3935,-1310.3246 195.2924,-1306.5559"/>
</g>
<!-- operator -->
<g id="node39" class="node">
<title>operator</title>
<polygon fill="none" stroke="#000000" points="258.0758,-579.6 168.3141,-579.6 168.3141,-543.6 258.0758,-543.6 258.0758,-579.6"/>
<text text-anchor="middle" x="213.195" y="-557.4" font-family="Times,serif" font-size="14.00" fill="#000000">OPERATOR</text>
</g>
<!-- code_block&#45;&gt;operator -->
<g id="edge20" class="edge">
<title>code_block-&gt;operator</title>
<path fill="none" stroke="#000000" d="M231.1625,-1335.5772C244.9589,-1308.8973 268.195,-1256.9363 268.195,-1209.6 268.195,-1209.6 268.195,-1209.6 268.195,-705.6 268.195,-664.7184 265.0408,-653.2858 249.195,-615.6 245.2406,-606.1953 239.5798,-596.6879 233.9144,-588.327"/>
<polygon fill="#000000" stroke="#000000" points="236.7134,-586.2231 228.0802,-580.0815 230.9991,-590.2664 236.7134,-586.2231"/>
</g>
<!-- return_type -->
<g id="node14" class="node">
<title>return_type</title>
<polygon fill="none" stroke="#000000" points="250.3789,-363.6 102.0111,-363.6 102.0111,-327.6 250.3789,-327.6 250.3789,-363.6"/>
<text text-anchor="middle" x="176.195" y="-341.4" font-family="Times,serif" font-size="14.00" fill="#000000">ALG_UNIT_RETURN</text>
</g>
<!-- output&#45;&gt;return_type -->
<g id="edge41" class="edge">
<title>output-&gt;return_type</title>
<path fill="none" stroke="#000000" d="M176.195,-399.4314C176.195,-391.731 176.195,-382.5743 176.195,-374.0166"/>
<polygon fill="#000000" stroke="#000000" points="179.6951,-374.0132 176.195,-364.0133 172.6951,-374.0133 179.6951,-374.0132"/>
</g>
<!-- return -->
<g id="node15" class="node">
<title>return</title>
<polygon fill="none" stroke="#000000" points="171.1866,-291.6 99.2034,-291.6 99.2034,-255.6 171.1866,-255.6 171.1866,-291.6"/>
<text text-anchor="middle" x="135.195" y="-269.4" font-family="Times,serif" font-size="14.00" fill="#000000">RETURN</text>
</g>
<!-- return_type&#45;&gt;return -->
<g id="edge42" class="edge">
<title>return_type-&gt;return</title>
<path fill="none" stroke="#000000" d="M165.8489,-327.4314C161.2712,-319.3925 155.7898,-309.7666 150.7361,-300.8918"/>
<polygon fill="#000000" stroke="#000000" points="153.6702,-298.9712 145.6803,-292.0133 147.5873,-302.4351 153.6702,-298.9712"/>
</g>
<!-- yield -->
<g id="node18" class="node">
<title>yield</title>
<polygon fill="none" stroke="#000000" points="251.174,-291.6 193.216,-291.6 193.216,-255.6 251.174,-255.6 251.174,-291.6"/>
<text text-anchor="middle" x="222.195" y="-269.4" font-family="Times,serif" font-size="14.00" fill="#000000">YIELD</text>
</g>
<!-- return_type&#45;&gt;yield -->
<g id="edge43" class="edge">
<title>return_type-&gt;yield</title>
<path fill="none" stroke="#000000" d="M187.8027,-327.4314C192.9927,-319.3079 199.2181,-309.5637 204.9374,-300.6118"/>
<polygon fill="#000000" stroke="#000000" points="207.9964,-302.3246 210.4309,-292.0133 202.0976,-298.5559 207.9964,-302.3246"/>
</g>
<!-- return_command -->
<g id="node16" class="node">
<title>return_command</title>
<ellipse fill="none" stroke="#000000" cx="118.195" cy="-201.6" rx="34.1871" ry="18"/>
<text text-anchor="middle" x="118.195" y="-197.4" font-family="Times,serif" font-size="14.00" fill="#000000">return</text>
</g>
<!-- return&#45;&gt;return_command -->
<g id="edge44" class="edge">
<title>return-&gt;return_command</title>
<path fill="none" stroke="#000000" d="M130.9051,-255.4314C129.0387,-247.5266 126.81,-238.0872 124.7439,-229.3365"/>
<polygon fill="#000000" stroke="#000000" points="128.1289,-228.4415 122.4245,-219.5134 121.3162,-230.0501 128.1289,-228.4415"/>
</g>
<!-- return_command_statement -->
<g id="node17" class="node">
<title>return_command_statement</title>
<polygon fill="none" stroke="#000000" points="159.8986,-147.6 60.4914,-147.6 60.4914,-111.6 159.8986,-111.6 159.8986,-147.6"/>
<text text-anchor="middle" x="110.195" y="-125.4" font-family="Times,serif" font-size="14.00" fill="#000000">STATEMENT</text>
</g>
<!-- return_command&#45;&gt;return_command_statement -->
<g id="edge45" class="edge">
<title>return_command-&gt;return_command_statement</title>
<path fill="none" stroke="#000000" d="M116.1762,-183.4314C115.3206,-175.731 114.3032,-166.5743 113.3524,-158.0166"/>
<polygon fill="#000000" stroke="#000000" points="116.8239,-157.5656 112.2409,-148.0133 109.8667,-158.3386 116.8239,-157.5656"/>
</g>
<!-- return_command_statement&#45;&gt;alg_br_close -->
<g id="edge46" class="edge">
<title>return_command_statement-&gt;alg_br_close</title>
<path fill="none" stroke="#000000" d="M124.8308,-111.4314C132.1718,-102.3185 141.1556,-91.1661 149.0385,-81.3805"/>
<polygon fill="#000000" stroke="#000000" points="151.7932,-83.54 155.3409,-73.5568 146.3419,-79.1487 151.7932,-83.54"/>
</g>
<!-- yield_command -->
<g id="node19" class="node">
<title>yield_command</title>
<ellipse fill="none" stroke="#000000" cx="224.195" cy="-201.6" rx="30.1958" ry="18"/>
<text text-anchor="middle" x="224.195" y="-197.4" font-family="Times,serif" font-size="14.00" fill="#000000">yield</text>
</g>
<!-- yield&#45;&gt;yield_command -->
<g id="edge47" class="edge">
<title>yield-&gt;yield_command</title>
<path fill="none" stroke="#000000" d="M222.6997,-255.4314C222.9136,-247.731 223.1679,-238.5743 223.4056,-230.0166"/>
<polygon fill="#000000" stroke="#000000" points="226.9044,-230.1066 223.6835,-220.0133 219.9071,-229.9122 226.9044,-230.1066"/>
</g>
<!-- yield_command_statement -->
<g id="node20" class="node">
<title>yield_command_statement</title>
<polygon fill="none" stroke="#000000" points="276.8986,-147.6 177.4914,-147.6 177.4914,-111.6 276.8986,-111.6 276.8986,-147.6"/>
<text text-anchor="middle" x="227.195" y="-125.4" font-family="Times,serif" font-size="14.00" fill="#000000">STATEMENT</text>
</g>
<!-- yield_command&#45;&gt;yield_command_statement -->
<g id="edge48" class="edge">
<title>yield_command-&gt;yield_command_statement</title>
<path fill="none" stroke="#000000" d="M224.952,-183.4314C225.2728,-175.731 225.6544,-166.5743 226.0109,-158.0166"/>
<polygon fill="#000000" stroke="#000000" points="229.5083,-158.1503 226.4277,-148.0133 222.5144,-157.8589 229.5083,-158.1503"/>
</g>
<!-- yield_command_statement&#45;&gt;alg_br_close -->
<g id="edge49" class="edge">
<title>yield_command_statement-&gt;alg_br_close</title>
<path fill="none" stroke="#000000" d="M212.3068,-111.4314C204.8393,-102.3185 195.7005,-91.1661 187.6818,-81.3805"/>
<polygon fill="#000000" stroke="#000000" points="190.3161,-79.0732 181.2707,-73.5568 184.9018,-83.51 190.3161,-79.0732"/>
</g>
<!-- param_list -->
<g id="node23" class="node">
<title>param_list</title>
<polygon fill="none" stroke="#000000" points="234.5209,-1659.6 131.869,-1659.6 131.869,-1623.6 234.5209,-1623.6 234.5209,-1659.6"/>
<text text-anchor="middle" x="183.195" y="-1637.4" font-family="Times,serif" font-size="14.00" fill="#000000">PARAM_LIST</text>
</g>
<!-- input_br_open&#45;&gt;param_list -->
<g id="edge11" class="edge">
<title>input_br_open-&gt;param_list</title>
<path fill="none" stroke="#000000" d="M183.195,-1695.4314C183.195,-1687.731 183.195,-1678.5743 183.195,-1670.0166"/>
<polygon fill="#000000" stroke="#000000" points="186.6951,-1670.0132 183.195,-1660.0133 179.6951,-1670.0133 186.6951,-1670.0132"/>
</g>
<!-- input_br_close -->
<g id="node22" class="node">
<title>input_br_close</title>
<ellipse fill="none" stroke="#000000" cx="146.195" cy="-1497.6" rx="27" ry="18"/>
<text text-anchor="middle" x="146.195" y="-1493.4" font-family="Times,serif" font-size="14.00" fill="#000000">)</text>
</g>
<!-- input_br_close&#45;&gt;alg_comma_2 -->
<g id="edge12" class="edge">
<title>input_br_close-&gt;alg_comma_2</title>
<path fill="none" stroke="#000000" d="M157.3278,-1480.9008C163.3254,-1471.9043 170.8452,-1460.6247 177.5264,-1450.6029"/>
<polygon fill="#000000" stroke="#000000" points="180.4877,-1452.4706 183.1225,-1442.2087 174.6633,-1448.5877 180.4877,-1452.4706"/>
</g>
<!-- param_list&#45;&gt;input_br_close -->
<g id="edge17" class="edge">
<title>param_list-&gt;input_br_close</title>
<path fill="none" stroke="#000000" d="M173.6854,-1623.5758C168.6477,-1613.2957 162.7777,-1600.0202 159.195,-1587.6 153.37,-1567.4067 150.0877,-1543.8774 148.2789,-1525.9423"/>
<polygon fill="#000000" stroke="#000000" points="151.7511,-1525.4773 147.3547,-1515.8377 144.7801,-1526.115 151.7511,-1525.4773"/>
</g>
<!-- param_list_statement -->
<g id="node24" class="node">
<title>param_list_statement</title>
<polygon fill="none" stroke="#000000" points="267.8986,-1587.6 168.4914,-1587.6 168.4914,-1551.6 267.8986,-1551.6 267.8986,-1587.6"/>
<text text-anchor="middle" x="218.195" y="-1565.4" font-family="Times,serif" font-size="14.00" fill="#000000">STATEMENT</text>
</g>
<!-- param_list&#45;&gt;param_list_statement -->
<g id="edge13" class="edge">
<title>param_list-&gt;param_list_statement</title>
<path fill="none" stroke="#000000" d="M192.0269,-1623.4314C195.8936,-1615.4771 200.5156,-1605.969 204.7918,-1597.1723"/>
<polygon fill="#000000" stroke="#000000" points="208.0199,-1598.5371 209.2441,-1588.0133 201.7243,-1595.4768 208.0199,-1598.5371"/>
</g>
<!-- param_list_statement&#45;&gt;input_br_close -->
<g id="edge16" class="edge">
<title>param_list_statement-&gt;input_br_close</title>
<path fill="none" stroke="#000000" d="M200.0263,-1551.4314C190.4656,-1541.8706 178.66,-1530.0651 168.5431,-1519.9481"/>
<polygon fill="#000000" stroke="#000000" points="170.7469,-1517.2021 161.2009,-1512.6059 165.7971,-1522.1519 170.7469,-1517.2021"/>
</g>
<!-- param_list_comma -->
<g id="node25" class="node">
<title>param_list_comma</title>
<ellipse fill="none" stroke="#000000" cx="218.195" cy="-1497.6" rx="27" ry="18"/>
<text text-anchor="middle" x="218.195" y="-1493.4" font-family="Times,serif" font-size="14.00" fill="#000000">,</text>
</g>
<!-- param_list_statement&#45;&gt;param_list_comma -->
<g id="edge14" class="edge">
<title>param_list_statement-&gt;param_list_comma</title>
<path fill="none" stroke="#000000" d="M212.2426,-1551.4314C211.4806,-1543.6125 211.2646,-1534.2923 211.5945,-1525.6221"/>
<polygon fill="#000000" stroke="#000000" points="215.0954,-1525.7239 212.2677,-1515.5134 208.1109,-1525.2587 215.0954,-1525.7239"/>
</g>
<!-- param_list_comma&#45;&gt;param_list_statement -->
<g id="edge15" class="edge">
<title>param_list_comma-&gt;param_list_statement</title>
<path fill="none" stroke="#000000" d="M224.1222,-1515.5134C224.8961,-1523.2993 225.124,-1532.61 224.806,-1541.2941"/>
<polygon fill="#000000" stroke="#000000" points="221.3032,-1541.2254 224.1474,-1551.4314 228.2885,-1541.6794 221.3032,-1541.2254"/>
</g>
<!-- fragment&#45;&gt;code_block -->
<g id="edge3" class="edge">
<title>fragment-&gt;code_block</title>
<path fill="none" stroke="#000000" d="M296.195,-2127.4146C296.195,-2100.0983 296.195,-2046.85 296.195,-2001.6 296.195,-2001.6 296.195,-2001.6 296.195,-1497.6 296.195,-1452.3853 266.7491,-1407.2965 244.7582,-1379.9276"/>
<polygon fill="#000000" stroke="#000000" points="247.2866,-1377.4931 238.2136,-1372.0221 241.8946,-1381.957 247.2866,-1377.4931"/>
</g>
<!-- proc -->
<g id="node29" class="node">
<title>proc</title>
<ellipse fill="none" stroke="#000000" cx="28.195" cy="-1209.6" rx="28.3913" ry="18"/>
<text text-anchor="middle" x="28.195" y="-1205.4" font-family="Times,serif" font-size="14.00" fill="#000000">proc</text>
</g>
<!-- alg_unit&#45;&gt;proc -->
<g id="edge25" class="edge">
<title>alg_unit-&gt;proc</title>
<path fill="none" stroke="#000000" d="M138.1007,-1263.4314C113.8803,-1251.5683 82.6036,-1236.2492 59.6122,-1224.988"/>
<polygon fill="#000000" stroke="#000000" points="61.1413,-1221.8397 50.6211,-1220.5842 58.0621,-1228.1262 61.1413,-1221.8397"/>
</g>
<!-- func -->
<g id="node30" class="node">
<title>func</title>
<ellipse fill="none" stroke="#000000" cx="102.195" cy="-1209.6" rx="28.3913" ry="18"/>
<text text-anchor="middle" x="102.195" y="-1205.4" font-family="Times,serif" font-size="14.00" fill="#000000">func</text>
</g>
<!-- alg_unit&#45;&gt;func -->
<g id="edge24" class="edge">
<title>alg_unit-&gt;func</title>
<path fill="none" stroke="#000000" d="M156.774,-1263.4314C147.2151,-1254.0034 135.443,-1242.3926 125.2819,-1232.3706"/>
<polygon fill="#000000" stroke="#000000" points="127.4664,-1229.6092 117.8889,-1225.079 122.5509,-1234.593 127.4664,-1229.6092"/>
</g>
<!-- iter -->
<g id="node31" class="node">
<title>iter</title>
<ellipse fill="none" stroke="#000000" cx="175.195" cy="-1209.6" rx="27" ry="18"/>
<text text-anchor="middle" x="175.195" y="-1205.4" font-family="Times,serif" font-size="14.00" fill="#000000">iter</text>
</g>
<!-- alg_unit&#45;&gt;iter -->
<g id="edge26" class="edge">
<title>alg_unit-&gt;iter</title>
<path fill="none" stroke="#000000" d="M175.195,-1263.4314C175.195,-1255.731 175.195,-1246.5743 175.195,-1238.0166"/>
<polygon fill="#000000" stroke="#000000" points="178.6951,-1238.0132 175.195,-1228.0133 171.6951,-1238.0133 178.6951,-1238.0132"/>
</g>
<!-- alg_unit_br_open -->
<g id="node32" class="node">
<title>alg_unit_br_open</title>
<ellipse fill="none" stroke="#000000" cx="103.195" cy="-1137.6" rx="27" ry="18"/>
<text text-anchor="middle" x="103.195" y="-1133.4" font-family="Times,serif" font-size="14.00" fill="#000000">(</text>
</g>
<!-- proc&#45;&gt;alg_unit_br_open -->
<g id="edge28" class="edge">
<title>proc-&gt;alg_unit_br_open</title>
<path fill="none" stroke="#000000" d="M44.1005,-1194.3307C54.6118,-1184.2398 68.5569,-1170.8526 80.2607,-1159.6169"/>
<polygon fill="#000000" stroke="#000000" points="82.7795,-1162.0507 87.5695,-1152.6004 77.9317,-1157.0009 82.7795,-1162.0507"/>
</g>
<!-- func&#45;&gt;alg_unit_br_open -->
<g id="edge27" class="edge">
<title>func-&gt;alg_unit_br_open</title>
<path fill="none" stroke="#000000" d="M102.4473,-1191.4314C102.5543,-1183.731 102.6814,-1174.5743 102.8003,-1166.0166"/>
<polygon fill="#000000" stroke="#000000" points="106.2999,-1166.0609 102.9392,-1156.0133 99.3006,-1165.9637 106.2999,-1166.0609"/>
</g>
<!-- iter&#45;&gt;alg_unit_br_open -->
<g id="edge29" class="edge">
<title>iter-&gt;alg_unit_br_open</title>
<path fill="none" stroke="#000000" d="M159.9256,-1194.3307C149.998,-1184.403 136.8797,-1171.2847 125.7586,-1160.1637"/>
<polygon fill="#000000" stroke="#000000" points="127.9883,-1157.4436 118.4423,-1152.8473 123.0385,-1162.3933 127.9883,-1157.4436"/>
</g>
<!-- alg_unit_name -->
<g id="node34" class="node">
<title>alg_unit_name</title>
<polygon fill="none" stroke="#000000" points="133.9058,-1083.6 76.4842,-1083.6 76.4842,-1047.6 133.9058,-1047.6 133.9058,-1083.6"/>
<text text-anchor="middle" x="105.195" y="-1061.4" font-family="Times,serif" font-size="14.00" fill="#000000">NAME</text>
</g>
<!-- alg_unit_br_open&#45;&gt;alg_unit_name -->
<g id="edge30" class="edge">
<title>alg_unit_br_open-&gt;alg_unit_name</title>
<path fill="none" stroke="#000000" d="M103.6997,-1119.4314C103.9136,-1111.731 104.1679,-1102.5743 104.4056,-1094.0166"/>
<polygon fill="#000000" stroke="#000000" points="107.9044,-1094.1066 104.6835,-1084.0133 100.9071,-1093.9122 107.9044,-1094.1066"/>
</g>
<!-- alg_unit_br_close -->
<g id="node33" class="node">
<title>alg_unit_br_close</title>
<ellipse fill="none" stroke="#000000" cx="140.195" cy="-705.6" rx="27" ry="18"/>
<text text-anchor="middle" x="140.195" y="-701.4" font-family="Times,serif" font-size="14.00" fill="#000000">)</text>
</g>
<!-- alg_unit_br_close&#45;&gt;alg_comma_3 -->
<g id="edge38" class="edge">
<title>alg_unit_br_close-&gt;alg_comma_3</title>
<path fill="none" stroke="#000000" d="M141.207,-687.4393C143.1359,-657.2851 148.1703,-595.1043 159.195,-543.6 161.0671,-534.8541 163.7563,-525.5027 166.4452,-517.0813"/>
<polygon fill="#000000" stroke="#000000" points="169.839,-517.967 169.6699,-507.3736 163.1959,-515.7603 169.839,-517.967"/>
</g>
<!-- code_block_comma -->
<g id="node40" class="node">
<title>code_block_comma</title>
<ellipse fill="none" stroke="#000000" cx="213.195" cy="-633.6" rx="27" ry="18"/>
<text text-anchor="middle" x="213.195" y="-629.4" font-family="Times,serif" font-size="14.00" fill="#000000">,</text>
</g>
<!-- alg_unit_br_close&#45;&gt;code_block_comma -->
<g id="edge37" class="edge">
<title>alg_unit_br_close-&gt;code_block_comma</title>
<path fill="none" stroke="#000000" d="M155.3206,-690.6816C165.5295,-680.6125 179.1828,-667.1463 190.6642,-655.8221"/>
<polygon fill="#000000" stroke="#000000" points="193.1756,-658.2611 197.8375,-648.747 188.2601,-653.2773 193.1756,-658.2611"/>
</g>
<!-- alg_unit_comma_1 -->
<g id="node35" class="node">
<title>alg_unit_comma_1</title>
<ellipse fill="none" stroke="#000000" cx="124.195" cy="-993.6" rx="27" ry="18"/>
<text text-anchor="middle" x="124.195" y="-989.4" font-family="Times,serif" font-size="14.00" fill="#000000">,</text>
</g>
<!-- alg_unit_name&#45;&gt;alg_unit_comma_1 -->
<g id="edge31" class="edge">
<title>alg_unit_name-&gt;alg_unit_comma_1</title>
<path fill="none" stroke="#000000" d="M109.9895,-1047.4314C112.0755,-1039.5266 114.5664,-1030.0872 116.8756,-1021.3365"/>
<polygon fill="#000000" stroke="#000000" points="120.3004,-1022.0755 119.4678,-1011.5134 113.532,-1020.2894 120.3004,-1022.0755"/>
</g>
<!-- alg_unit_input -->
<g id="node37" class="node">
<title>alg_unit_input</title>
<polygon fill="none" stroke="#000000" points="161.9044,-939.6 104.4856,-939.6 104.4856,-903.6 161.9044,-903.6 161.9044,-939.6"/>
<text text-anchor="middle" x="133.195" y="-917.4" font-family="Times,serif" font-size="14.00" fill="#000000">INPUT</text>
</g>
<!-- alg_unit_comma_1&#45;&gt;alg_unit_input -->
<g id="edge32" class="edge">
<title>alg_unit_comma_1-&gt;alg_unit_input</title>
<path fill="none" stroke="#000000" d="M126.466,-975.4314C127.4286,-967.731 128.5732,-958.5743 129.6429,-950.0166"/>
<polygon fill="#000000" stroke="#000000" points="133.1258,-950.3702 130.8933,-940.0133 126.1799,-949.5019 133.1258,-950.3702"/>
</g>
<!-- alg_unit_comma_2 -->
<g id="node36" class="node">
<title>alg_unit_comma_2</title>
<ellipse fill="none" stroke="#000000" cx="138.195" cy="-849.6" rx="27" ry="18"/>
<text text-anchor="middle" x="138.195" y="-845.4" font-family="Times,serif" font-size="14.00" fill="#000000">,</text>
</g>
<!-- alg_unit_operator -->
<g id="node38" class="node">
<title>alg_unit_operator</title>
<polygon fill="none" stroke="#000000" points="183.0758,-795.6 93.3141,-795.6 93.3141,-759.6 183.0758,-759.6 183.0758,-795.6"/>
<text text-anchor="middle" x="138.195" y="-773.4" font-family="Times,serif" font-size="14.00" fill="#000000">OPERATOR</text>
</g>
<!-- alg_unit_comma_2&#45;&gt;alg_unit_operator -->
<g id="edge34" class="edge">
<title>alg_unit_comma_2-&gt;alg_unit_operator</title>
<path fill="none" stroke="#000000" d="M132.2792,-831.8022C131.4954,-823.9864 131.2639,-814.6171 131.5847,-805.8836"/>
<polygon fill="#000000" stroke="#000000" points="135.091,-805.8999 132.25,-795.6931 128.1059,-805.4439 135.091,-805.8999"/>
</g>
<!-- alg_unit_input&#45;&gt;alg_unit_comma_2 -->
<g id="edge33" class="edge">
<title>alg_unit_input-&gt;alg_unit_comma_2</title>
<path fill="none" stroke="#000000" d="M134.4567,-903.4314C134.9914,-895.731 135.6273,-886.5743 136.2216,-878.0166"/>
<polygon fill="#000000" stroke="#000000" points="139.715,-878.2317 136.9163,-868.0133 132.7318,-877.7467 139.715,-878.2317"/>
</g>
<!-- alg_unit_operator&#45;&gt;alg_unit_br_close -->
<g id="edge36" class="edge">
<title>alg_unit_operator-&gt;alg_unit_br_close</title>
<path fill="none" stroke="#000000" d="M138.6997,-759.4314C138.9136,-751.731 139.1679,-742.5743 139.4056,-734.0166"/>
<polygon fill="#000000" stroke="#000000" points="142.9044,-734.1066 139.6835,-724.0133 135.9071,-733.9122 142.9044,-734.1066"/>
</g>
<!-- alg_unit_operator&#45;&gt;alg_unit_comma_2 -->
<g id="edge35" class="edge">
<title>alg_unit_operator-&gt;alg_unit_comma_2</title>
<path fill="none" stroke="#000000" d="M144.14,-795.6931C144.9099,-803.5477 145.1275,-812.9282 144.7929,-821.6453"/>
<polygon fill="#000000" stroke="#000000" points="141.2888,-821.5901 144.1107,-831.8022 148.273,-822.0593 141.2888,-821.5901"/>
</g>
<!-- operator&#45;&gt;alg_comma_3 -->
<g id="edge39" class="edge">
<title>operator-&gt;alg_comma_3</title>
<path fill="none" stroke="#000000" d="M203.8583,-543.4314C199.6001,-535.1451 194.4754,-525.1727 189.8001,-516.0748"/>
<polygon fill="#000000" stroke="#000000" points="192.8295,-514.3123 185.1457,-507.0177 186.6035,-517.5118 192.8295,-514.3123"/>
</g>
<!-- operator&#45;&gt;code_block_comma -->
<g id="edge23" class="edge">
<title>operator-&gt;code_block_comma</title>
<path fill="none" stroke="#000000" d="M219.14,-579.6931C219.9099,-587.5477 220.1275,-596.9282 219.7929,-605.6453"/>
<polygon fill="#000000" stroke="#000000" points="216.2888,-605.5901 219.1107,-615.8022 223.273,-606.0593 216.2888,-605.5901"/>
</g>
<!-- code_block_comma&#45;&gt;alg_unit -->
<g id="edge21" class="edge">
<title>code_block_comma-&gt;alg_unit</title>
<path fill="none" stroke="#000000" d="M216.7174,-651.7045C221.6968,-678.9176 230.195,-732.0358 230.195,-777.6 230.195,-1137.6 230.195,-1137.6 230.195,-1137.6 230.195,-1178.4816 227.0408,-1189.9142 211.195,-1227.6 207.2406,-1237.0047 201.5798,-1246.5121 195.9144,-1254.873"/>
<polygon fill="#000000" stroke="#000000" points="192.9991,-1252.9336 190.0802,-1263.1185 198.7134,-1256.9769 192.9991,-1252.9336"/>
</g>
<!-- code_block_comma&#45;&gt;operator -->
<g id="edge22" class="edge">
<title>code_block_comma-&gt;operator</title>
<path fill="none" stroke="#000000" d="M207.2792,-615.8022C206.4954,-607.9864 206.2639,-598.6171 206.5847,-589.8836"/>
<polygon fill="#000000" stroke="#000000" points="210.091,-589.8999 207.25,-579.6931 203.1059,-589.4439 210.091,-589.8999"/>
</g>
</g>
</svg>